<svg width="56" height="55" viewBox="0 0 56 55" fill="none" xmlns="http://www.w3.org/2000/svg">
<path d="M26.4935 18.9276C25.9358 24.2367 26.7259 28.1461 27.1907 29.4373C22.9042 27.8965 14.0266 23.1676 12.8078 16.5778C11.2843 8.34056 15.6482 4.00243 19.1084 0C17.1717 2.99537 17.8689 5.31936 21.5873 7.04945C25.3057 8.77953 27.1907 12.2913 26.4935 18.9276Z" fill="#212121"/>
<path d="M26.4935 18.9276C25.9358 24.2367 26.7259 28.1461 27.1907 29.4373C22.9042 27.8965 14.0266 23.1676 12.8078 16.5778C11.2843 8.34056 15.6482 4.00243 19.1084 0C17.1717 2.99537 17.8689 5.31936 21.5873 7.04945C25.3057 8.77953 27.1907 12.2913 26.4935 18.9276Z" fill="url(#paint0_linear_101_2)" fill-opacity="0.35"/>
<path d="M28.8578 18.9276C29.4155 24.2367 28.6254 28.1461 28.1606 29.4373C32.447 27.8965 41.3247 23.1676 42.5435 16.5778C44.067 8.34056 39.7031 4.00243 36.2429 0C38.1796 2.99537 37.4824 5.31936 33.764 7.04945C30.0456 8.77953 28.1606 12.2913 28.8578 18.9276Z" fill="#212121"/>
<path d="M28.8578 18.9276C29.4155 24.2367 28.6254 28.1461 28.1606 29.4373C32.447 27.8965 41.3247 23.1676 42.5435 16.5778C44.067 8.34056 39.7031 4.00243 36.2429 0C38.1796 2.99537 37.4824 5.31936 33.764 7.04945C30.0456 8.77953 28.1606 12.2913 28.8578 18.9276Z" fill="url(#paint1_linear_101_2)" fill-opacity="0.35"/>
<path d="M15.9581 24.0921C18.4783 26.9635 23.2399 29.42 25.3057 30.2894C20.3651 29.6266 9.67813 28.1926 6.45552 27.7588C2.42727 27.2165 1.36856 24.6085 0.361496 22.3878C3.64091 19.2375 6.99779 19.315 9.42507 19.7539C11.8524 20.1929 12.8078 20.5028 15.9581 24.0921Z" fill="#212121"/>
<path d="M15.9581 24.0921C18.4783 26.9635 23.2399 29.42 25.3057 30.2894C20.3651 29.6266 9.67813 28.1926 6.45552 27.7588C2.42727 27.2165 1.36856 24.6085 0.361496 22.3878C3.64091 19.2375 6.99779 19.315 9.42507 19.7539C11.8524 20.1929 12.8078 20.5028 15.9581 24.0921Z" fill="url(#paint2_linear_101_2)" fill-opacity="0.35"/>
<path d="M39.3932 24.0921C36.8729 26.9635 32.1113 29.42 30.0456 30.2894C34.9862 29.6266 45.6731 28.1926 48.8957 27.7588C52.924 27.2165 53.9827 24.6085 54.9898 22.3878C51.7103 19.2375 48.3535 19.315 45.9262 19.7539C43.4989 20.1929 42.5435 20.5028 39.3932 24.0921Z" fill="#212121"/>
<path d="M39.3932 24.0921C36.8729 26.9635 32.1113 29.42 30.0456 30.2894C34.9862 29.6266 45.6731 28.1926 48.8957 27.7588C52.924 27.2165 53.9827 24.6085 54.9898 22.3878C51.7103 19.2375 48.3535 19.315 45.9262 19.7539C43.4989 20.1929 42.5435 20.5028 39.3932 24.0921Z" fill="url(#paint3_linear_101_2)" fill-opacity="0.35"/>
<path d="M11.9298 26.7776C15.9168 26.3437 22.5083 28.938 25.3057 30.2894C25.0733 30.4443 24.7893 30.3927 20.6319 31.942C16.4745 33.4913 14.8219 36.7191 10.3289 37.0806C5.83581 37.4421 1.05871 34.3434 0 33.0782C2.60804 28.9983 6.94616 27.3198 11.9298 26.7776Z" fill="#212121"/>
<path d="M11.9298 26.7776C15.9168 26.3437 22.5083 28.938 25.3057 30.2894C25.0733 30.4443 24.7893 30.3927 20.6319 31.942C16.4745 33.4913 14.8219 36.7191 10.3289 37.0806C5.83581 37.4421 1.05871 34.3434 0 33.0782C2.60804 28.9983 6.94616 27.3198 11.9298 26.7776Z" fill="url(#paint4_linear_101_2)" fill-opacity="0.35"/>
<path d="M43.4214 26.7776C39.4345 26.3437 32.8429 28.938 30.0455 30.2894C30.2779 30.4443 30.562 30.3927 34.7194 31.942C38.8767 33.4913 40.5293 36.7191 45.0224 37.0806C49.5155 37.4421 54.2925 34.3434 55.3513 33.0782C52.7432 28.9983 48.4051 27.3198 43.4214 26.7776Z" fill="#212121"/>
<path d="M43.4214 26.7776C39.4345 26.3437 32.8429 28.938 30.0455 30.2894C30.2779 30.4443 30.562 30.3927 34.7194 31.942C38.8767 33.4913 40.5293 36.7191 45.0224 37.0806C49.5155 37.4421 54.2925 34.3434 55.3513 33.0782C52.7432 28.9983 48.4051 27.3198 43.4214 26.7776Z" fill="url(#paint5_linear_101_2)" fill-opacity="0.35"/>
<path d="M19.0051 34.3435C22.0004 32.4843 25.1163 31.4858 26.855 31.4256C27.5522 34.3435 27.3973 39.8177 25.9512 43.4329C24.5052 47.048 19.8056 48.5715 18.4628 50.4565C17.3886 51.9645 18.5145 54.0802 19.2117 54.9495C18.5403 54.6397 16.6501 52.9302 14.4604 48.5715C11.7232 43.123 16.0097 36.2026 19.0051 34.3435Z" fill="#212121"/>
<path d="M19.0051 34.3435C22.0004 32.4843 25.1163 31.4858 26.855 31.4256C27.5522 34.3435 27.3973 39.8177 25.9512 43.4329C24.5052 47.048 19.8056 48.5715 18.4628 50.4565C17.3886 51.9645 18.5145 54.0802 19.2117 54.9495C18.5403 54.6397 16.6501 52.9302 14.4604 48.5715C11.7232 43.123 16.0097 36.2026 19.0051 34.3435Z" fill="url(#paint6_linear_101_2)" fill-opacity="0.35"/>
<path d="M36.3462 34.3435C33.3508 32.4843 30.2349 31.4858 28.4963 31.4256C27.7991 34.3435 27.954 39.8177 29.4 43.4329C30.8461 47.048 35.5457 48.5715 36.8885 50.4565C37.9627 51.9645 36.8368 54.0802 36.1396 54.9495C36.811 54.6397 38.7012 52.9302 40.8909 48.5715C43.628 43.123 39.3416 36.2026 36.3462 34.3435Z" fill="#212121"/>
<path d="M36.3462 34.3435C33.3508 32.4843 30.2349 31.4858 28.4963 31.4256C27.7991 34.3435 27.954 39.8177 29.4 43.4329C30.8461 47.048 35.5457 48.5715 36.8885 50.4565C37.9627 51.9645 36.8368 54.0802 36.1396 54.9495C36.811 54.6397 38.7012 52.9302 40.8909 48.5715C43.628 43.123 39.3416 36.2026 36.3462 34.3435Z" fill="url(#paint7_linear_101_2)" fill-opacity="0.35"/>
<defs>
<linearGradient id="paint0_linear_101_2" x1="27.8363" y1="30.7542" x2="20.3995" y2="15.1318" gradientUnits="userSpaceOnUse">
<stop stop-color="white"/>
<stop offset="1" stop-opacity="0"/>
</linearGradient>
<linearGradient id="paint1_linear_101_2" x1="27.515" y1="30.7542" x2="34.9518" y2="15.1318" gradientUnits="userSpaceOnUse">
<stop stop-color="white"/>
<stop offset="1" stop-opacity="0"/>
</linearGradient>
<linearGradient id="paint2_linear_101_2" x1="12.8594" y1="28.8433" x2="11.4134" y2="22.6977" gradientUnits="userSpaceOnUse">
<stop stop-color="white"/>
<stop offset="1" stop-opacity="0"/>
</linearGradient>
<linearGradient id="paint3_linear_101_2" x1="42.4918" y1="28.8433" x2="43.9379" y2="22.6977" gradientUnits="userSpaceOnUse">
<stop stop-color="white"/>
<stop offset="1" stop-opacity="0"/>
</linearGradient>
<linearGradient id="paint4_linear_101_2" x1="26.0545" y1="30.2377" x2="13.6341" y2="28.5851" gradientUnits="userSpaceOnUse">
<stop stop-color="white"/>
<stop offset="1" stop-opacity="0"/>
</linearGradient>
<linearGradient id="paint5_linear_101_2" x1="29.2967" y1="30.2377" x2="41.7172" y2="28.5851" gradientUnits="userSpaceOnUse">
<stop stop-color="white"/>
<stop offset="1" stop-opacity="0"/>
</linearGradient>
<linearGradient id="paint6_linear_101_2" x1="27.2682" y1="30.5734" x2="19.5473" y2="41.3929" gradientUnits="userSpaceOnUse">
<stop stop-color="white"/>
<stop offset="1" stop-opacity="0"/>
</linearGradient>
<linearGradient id="paint7_linear_101_2" x1="28.0831" y1="30.5734" x2="35.8039" y2="41.3929" gradientUnits="userSpaceOnUse">
<stop stop-color="white"/>
<stop offset="1" stop-opacity="0"/>
</linearGradient>
</defs>
</svg>
