<svg width="129" height="29" viewBox="0 0 129 29" fill="none" xmlns="http://www.w3.org/2000/svg">
<path d="M17.2759 0.945541V20.9494H13.5037V4.51766H4.07332V20.9494H0.329742V0.945541H17.2759Z" fill="#212121"/>
<path d="M20.583 28.0936V6.80381H24.1551V8.71847C25.3744 7.28962 27.0128 6.5752 29.0703 6.5752C30.9564 6.5752 32.5281 7.2801 33.7855 8.68989C35.062 10.0806 35.7002 11.8143 35.7002 13.8909C35.7002 15.9484 35.062 17.6821 33.7855 19.0919C32.5281 20.4826 30.9564 21.178 29.0703 21.178C27.0699 21.178 25.4315 20.4731 24.1551 19.0633V28.0936H20.583ZM25.2982 16.8629C26.0793 17.6631 27.0318 18.0631 28.1559 18.0631C29.2799 18.0631 30.2229 17.6631 30.985 16.8629C31.747 16.0627 32.1281 15.0721 32.1281 13.8909C32.1281 12.6907 31.747 11.6905 30.985 10.8903C30.2229 10.0902 29.2799 9.69009 28.1559 9.69009C27.0318 9.69009 26.0793 10.0902 25.2982 10.8903C24.5361 11.6905 24.1551 12.6907 24.1551 13.8909C24.1551 15.0721 24.5361 16.0627 25.2982 16.8629Z" fill="#212121"/>
<path d="M50.426 19.1491C48.9591 20.597 47.1778 21.3209 45.0821 21.3209C42.9865 21.3209 41.1957 20.597 39.7097 19.1491C38.2237 17.6821 37.4807 15.9199 37.4807 13.8623C37.4807 11.7857 38.2237 10.014 39.7097 8.54701C41.1957 7.06101 42.9865 6.31801 45.0821 6.31801C47.1587 6.31801 48.94 7.06101 50.426 8.54701C51.912 10.014 52.655 11.7857 52.655 13.8623C52.655 15.9389 51.912 17.7012 50.426 19.1491ZM45.0821 18.1203C46.2252 18.1393 47.1873 17.7488 47.9684 16.9486C48.7495 16.1294 49.14 15.1102 49.14 13.8909C49.14 12.6526 48.7495 11.6238 47.9684 10.8046C47.1873 9.98538 46.2252 9.5853 45.0821 9.60435C43.92 9.5853 42.9484 9.98538 42.1673 10.8046C41.3862 11.6238 40.9956 12.6526 40.9956 13.8909C40.9956 15.1102 41.3862 16.1294 42.1673 16.9486C42.9484 17.7488 43.92 18.1393 45.0821 18.1203Z" fill="#212121"/>
<path d="M75.3087 13.9195C75.3087 15.7484 74.6038 17.3201 73.194 18.6347C71.7842 19.9492 69.5648 20.7208 66.5356 20.9494V28.0936H63.1349V20.9494C60.0867 20.7208 57.8577 19.9587 56.4479 18.6632C55.0381 17.3487 54.3332 15.7674 54.3332 13.9195C54.3332 12.0715 55.0381 10.4807 56.4479 9.14712C57.8768 7.81353 60.1058 7.03243 63.1349 6.80381V0.945541H66.5356V6.80381C69.5648 7.03243 71.7842 7.81353 73.194 9.14712C74.6038 10.4807 75.3087 12.0715 75.3087 13.9195ZM57.8196 13.948C57.8196 15.034 58.2483 15.958 59.1056 16.72C59.9819 17.463 61.3251 17.9202 63.1349 18.0917V9.69009C61.3251 9.8806 59.9819 10.3569 59.1056 11.1189C58.2483 11.881 57.8196 12.824 57.8196 13.948ZM66.5356 18.0917C68.3455 17.9012 69.6791 17.4344 70.5364 16.6914C71.3937 15.9484 71.8223 15.034 71.8223 13.948C71.8223 12.824 71.3937 11.881 70.5364 11.1189C69.6791 10.3569 68.3455 9.8806 66.5356 9.69009V18.0917Z" fill="#212121"/>
<path d="M77.5973 20.9494V6.80381H81.1694V12.1477H83.3699L87.7993 6.80381H92.343L86.2561 13.6623L92.343 20.9494H87.885L83.3699 15.2054H81.1694V20.9494H77.5973Z" fill="#212121"/>
<path d="M106.073 19.1491C104.606 20.597 102.825 21.3209 100.729 21.3209C98.6334 21.3209 96.8426 20.597 95.3566 19.1491C93.8706 17.6821 93.1276 15.9199 93.1276 13.8623C93.1276 11.7857 93.8706 10.014 95.3566 8.54701C96.8426 7.06101 98.6334 6.31801 100.729 6.31801C102.806 6.31801 104.587 7.06101 106.073 8.54701C107.559 10.014 108.302 11.7857 108.302 13.8623C108.302 15.9389 107.559 17.7012 106.073 19.1491ZM100.729 18.1203C101.872 18.1393 102.834 17.7488 103.615 16.9486C104.396 16.1294 104.787 15.1102 104.787 13.8909C104.787 12.6526 104.396 11.6238 103.615 10.8046C102.834 9.98538 101.872 9.5853 100.729 9.60435C99.5669 9.5853 98.5953 9.98538 97.8142 10.8046C97.0331 11.6238 96.6425 12.6526 96.6425 13.8909C96.6425 15.1102 97.0331 16.1294 97.8142 16.9486C98.5953 17.7488 99.5669 18.1393 100.729 18.1203Z" fill="#212121"/>
<path d="M128.067 6.80381V20.9494H124.752V11.6333L120.637 17.8059H118.179L114.178 11.7476V20.9494H110.835V6.80381H114.607L119.436 14.3767L124.295 6.80381H128.067Z" fill="#212121"/>
</svg>
